# xmcd
#
# Track frame offsets: 
#        150
#        18980
#        33085
#        50640
#        64896
#        78476
#        95057
#        108262
#        126642
#        142247
#        161077
#        173908
#        188837
#        207407
#        230847
#        247832
#
# Disc length: 3573 seconds
#
# Revision: 0
# Processed by: cddbd v1.5.2PL0 Copyright (c) Steve Scherf et al.
# Submitted via: ExactAudioCopyFreeDBPlugin 1.0
#
DISCID=ea0df310
DTITLE=Foghorn String Band - Live - Boats and Bluegrass Festival
DYEAR=2013
DGENRE=Country
TTITLE0=The Horses Ain't Hungry
TTITLE1=The Birds Will Sing
TTITLE2=Shortning Bread
TTITLE3=Goin' Home
TTITLE4=Mississippi Sawyer
TTITLE5=I Wonder How The Old Folks Are
TTITLE6=Fiddler's Dream
TTITLE7=Way Down In North Carolina
TTITLE8=I Pass in Front of Your Front Door
TTITLE9=Old Liza Jane
TTITLE10=South in Louisiana
TTITLE11=Satisfied Mind
TTITLE12=None of Your Business
TTITLE13=Don't Know What I'll Do
TTITLE14=The Whispering Forests
TTITLE15=The Gospel Ship
EXTD=
EXTT0=
EXTT1=
EXTT2=
EXTT3=
EXTT4=
EXTT5=
EXTT6=
EXTT7=
EXTT8=
EXTT9=
EXTT10=
EXTT11=
EXTT12=
EXTT13=
EXTT14=
EXTT15=
PLAYORDER=
